<svg width="192" height="192" viewBox="0 0 192 192" fill="none" xmlns="http://www.w3.org/2000/svg">
  <rect width="192" height="192" rx="42" fill="#122E3F"/>
  <path d="M42 140V52H83C100 52 112 62 112 77C112 86 108 94 100 99C111 103 118 111 118 123C118 140 105 150 85 150H42V140ZM61 88H81C89 88 94 84 94 78C94 72 89 68 81 68H61V88ZM61 133H84C93 133 99 129 99 122C99 115 93 111 84 111H61V133Z" fill="#FFFFFF"/>
  <path d="M126 52H145V88H159V52H178V140H159V105H145V140H126V52Z" fill="#1599E4"/>
</svg>
