<svg width="80" height="80" viewBox="0 0 80 80" fill="none" xmlns="http://www.w3.org/2000/svg">
<path d="M4.15495 42.095C4.15495 44.5387 3.92808 45.3344 3.34495 45.92C2.69745 46.4262 1.85558 46.7044 0.981201 46.7044L1.2087 48.1006C2.5612 48.115 3.87433 47.7025 4.89995 46.9406C5.45183 46.3594 5.86183 45.6906 6.1062 44.9706C6.3489 44.2577 6.42313 43.4983 6.32308 42.7519V33.505H4.15495V42.095ZM20.3318 40.9937C20.3318 42.0412 20.3318 42.9762 20.4275 43.7869H18.5012L18.3718 42.1244C17.9687 42.7119 17.3925 43.1981 16.7018 43.5306C15.9959 43.8683 15.2211 44.0369 14.4387 44.0231C12.5612 44.0231 10.3268 43.1444 10.3268 39.5556V33.5912H12.4975V39.1775C12.4975 41.1181 13.1931 42.4169 15.1512 42.4169C15.5517 42.4217 15.95 42.3566 16.3281 42.2244C16.6926 42.0971 17.0304 41.9034 17.3243 41.6531C17.6022 41.4158 17.8274 41.1231 17.9856 40.7937C18.138 40.4771 18.215 40.1295 18.2106 39.7781V33.5206H20.3781V40.9375L20.3318 40.9937ZM24.4437 36.9144C24.4437 35.615 24.4437 34.5531 24.3456 33.5912H26.2893L26.3843 35.3369C26.8187 34.7044 27.4412 34.1869 28.1887 33.8381C28.9509 33.4858 29.7859 33.3191 30.625 33.3519C33.5081 33.3519 35.6762 35.4344 35.6762 38.5331C35.6762 42.1925 33.0712 44.0087 30.2537 44.0087C29.5392 44.0378 28.8273 43.9051 28.1712 43.6206C27.5293 43.3394 26.98 42.92 26.5793 42.4019V47.9881H24.4437V36.9144ZM26.5793 39.6362C26.5843 39.89 26.6187 40.1437 26.6775 40.3906C26.8606 41.0106 27.2775 41.56 27.8637 41.9531C28.45 42.3462 29.1725 42.5562 29.9143 42.5562C32.1975 42.5562 33.54 40.95 33.54 38.6187C33.54 36.5794 32.2775 34.8337 29.995 34.8337C29.0918 34.8975 28.2468 35.2419 27.6175 35.8056C26.99 36.3694 26.6187 37.1094 26.58 37.8906L26.5793 39.6362ZM39.5412 33.5812L42.1487 39.6C42.4256 40.2843 42.6787 40.9781 42.9075 41.68C43.135 41.0669 43.3762 40.2831 43.67 39.5581L46.0325 33.5812H48.3156L45.0781 40.8425C43.4593 44.3337 42.4706 46.135 40.9812 47.2237C40.2318 47.8175 39.3162 48.23 38.3275 48.425L37.7931 46.8625C38.4721 46.6711 39.113 46.3639 39.6875 45.9544C40.4762 45.3981 41.1037 44.69 41.5162 43.8869C41.604 43.7508 41.6644 43.5991 41.6943 43.44C41.675 43.2699 41.6255 43.1046 41.5481 42.9519L37.1462 33.5519H39.5087L39.5412 33.5812ZM54.0725 30.6519V33.5837H57.18V34.9806H54.0725V40.4831C54.0725 41.7406 54.4943 42.4656 55.6912 42.4656C56.1153 42.471 56.5386 42.4285 56.9531 42.3387L57.0506 43.7375C56.4256 43.9215 55.7755 44.0057 55.1243 43.9869C54.6935 44.0109 54.2621 43.9537 53.8525 43.8181C53.4564 43.6891 53.0908 43.4807 52.7781 43.2056C52.1193 42.4437 51.8187 41.4969 51.9362 40.5519V34.9656H50.0906V33.5694H51.9675V31.0837L54.0725 30.6519ZM61.1768 39.0112C61.1331 39.485 61.2081 39.9612 61.3987 40.405C61.5968 40.8629 61.8977 41.269 62.2781 41.5919C62.6813 41.935 63.1496 42.1933 63.655 42.3512C64.17 42.5169 64.7237 42.5806 65.2712 42.5437C66.3739 42.5677 67.4716 42.3874 68.5087 42.0119L68.8818 43.4081C67.6093 43.8568 66.2658 44.0703 64.9168 44.0381C64.1231 44.0844 63.33 43.9819 62.5881 43.74C61.8635 43.5055 61.1933 43.1278 60.6175 42.6294C60.0612 42.1412 59.6312 41.555 59.3625 40.9106C59.0951 40.2758 58.9894 39.5845 59.055 38.8987C59.055 35.825 61.1768 33.3962 64.6412 33.3962C68.5256 33.3962 69.4975 36.3281 69.4975 38.2006C69.5162 38.4885 69.5162 38.7766 69.4975 39.065H61.1275L61.1768 39.0112ZM67.5218 37.615C67.5842 37.2403 67.5532 36.8561 67.4318 36.4962C67.3028 36.126 67.0904 35.7903 66.8112 35.515C66.5167 35.221 66.1642 34.9916 65.7762 34.8412C65.3739 34.6811 64.9449 34.5984 64.5118 34.5975C63.6231 34.6537 62.7881 34.9925 62.175 35.5519C61.56 36.1081 61.2106 36.8431 61.1937 37.6144L67.5218 37.615ZM72.7875 36.7556C72.7875 35.5569 72.7875 34.5212 72.6906 33.5719H74.6343V35.5687H74.7312C74.9343 34.9537 75.3562 34.4062 75.935 34.0062C76.5162 33.6062 77.2268 33.3719 77.9687 33.335C78.1712 33.3131 78.3787 33.3131 78.5837 33.335V35.0806C78.3362 35.0559 78.0868 35.0559 77.8393 35.0806C77.1043 35.105 76.4037 35.3587 75.8718 35.7956C75.3368 36.2331 75.0075 36.8237 74.9412 37.4537C74.8808 37.7412 74.8483 38.03 74.8437 38.32V43.7525H72.7075V36.77L72.7875 36.7556Z" fill="#9F9F9F"/>
<path d="M68.6037 4.55062C68.6429 5.49011 68.4061 6.4205 67.9224 7.22687C67.4393 8.02873 66.7301 8.66995 65.8837 9.07C65.0383 9.46644 64.0938 9.60138 63.1712 9.4575C62.2471 9.31329 61.387 8.89705 60.7006 8.26187C60.0112 7.62278 59.5258 6.79441 59.3052 5.88061C59.0846 4.9668 59.1387 4.00822 59.4606 3.125C59.7786 2.24338 60.3503 1.47554 61.1037 0.918124C61.8551 0.362943 62.7553 0.0449651 63.6887 0.00499944C64.308 -0.0214415 64.9263 0.075201 65.508 0.289334C66.0897 0.503467 66.6231 0.830837 67.0774 1.2525C68.0001 2.10714 68.5477 3.29164 68.6012 4.54812L68.6037 4.55062Z" fill="#9F9F9F"/>
<path d="M41.0987 60.4937C28.5375 60.4937 17.5681 55.8912 11.87 49.0769C13.9829 55.1782 17.9356 60.4743 23.1837 64.2356C28.4098 67.98 34.6772 69.994 41.1062 69.995C47.5348 69.9926 53.8016 67.9787 59.0281 64.2356C64.2758 60.475 68.2271 55.1785 70.3368 49.0769C64.6287 55.8912 53.6593 60.4937 41.0987 60.4937ZM41.0937 16.1769C53.655 16.1769 64.6262 20.7812 70.3225 27.5925C68.2094 21.4914 64.2567 16.1956 59.0087 12.4344C53.7833 8.69017 47.5171 6.67517 41.0887 6.67188C34.6603 6.67517 28.3941 8.69017 23.1687 12.4344C17.9197 16.1943 13.967 21.4906 11.8562 27.5925C17.5637 20.7937 28.5325 16.1769 41.0937 16.1769Z" fill="#9F9F9F"/>
<path d="M23.8525 73.7401C23.904 74.9246 23.6061 76.0981 22.9956 77.1145C22.3891 78.1259 21.4951 78.9338 20.4276 79.4351C19.3601 79.9365 18.1675 80.1086 17.0019 79.9295C15.8362 79.7496 14.7517 79.223 13.8894 78.4182C13.0233 77.6122 12.4129 76.5698 12.1338 75.4201C11.8581 74.2661 11.9261 73.0566 12.3294 71.9407C12.733 70.8282 13.4567 69.8599 14.4094 69.1576C15.5182 68.3428 16.8764 67.9399 18.2502 68.0184C19.624 68.0969 20.9274 68.6518 21.9363 69.5876C23.0971 70.6663 23.7856 72.1593 23.8525 73.7426V73.7401Z" fill="#9F9F9F"/>
<path d="M13.3032 14.6362C12.6127 14.6662 11.9291 14.4886 11.3407 14.1262C10.7484 13.7629 10.277 13.2323 9.98577 12.6014C9.69458 11.9706 9.59669 11.2676 9.70443 10.5812C9.8077 9.89283 10.1139 9.2509 10.5838 8.73743C11.0494 8.22619 11.6559 7.8643 12.3269 7.69743C12.9976 7.5299 13.7033 7.57001 14.3507 7.81243C15.0004 8.05182 15.5633 8.48048 15.9669 9.04306C16.4435 9.70137 16.6789 10.5037 16.6335 11.3152C16.5881 12.1266 16.2646 12.8977 15.7176 13.4987C15.4096 13.8383 15.0376 14.1137 14.6228 14.3089C14.208 14.5042 13.7587 14.6154 13.3007 14.6362H13.3032Z" fill="#9F9F9F"/>
</svg>
