<svg width="80" height="80" viewBox="0 0 80 80" fill="none" xmlns="http://www.w3.org/2000/svg">
<path d="M25.4666 34.6C25.4666 35.4333 25.5333 36.1 25.7 36.6666C25.8666 37.0666 26.1 37.6 26.4 38.2C26.5333 38.3333 26.5666 38.5333 26.5666 38.7C26.5666 38.9333 26.4333 39.1333 26.1333 39.3666L24.7333 40.3C24.5333 40.4333 24.3333 40.5 24.1666 40.5C23.9333 40.5 23.7333 40.3666 23.5 40.1666C23.2 39.8333 22.9333 39.5 22.7 39.1333C22.5 38.7666 22.2666 38.3333 22.0333 37.8333C20.3 39.8666 18.1333 40.9 15.5 40.9C13.6333 40.9 12.1666 40.3666 11.0666 39.3C9.99995 38.2333 9.43329 36.8 9.43329 35C9.43329 33.1666 10.1 31.6666 11.4333 30.4666C12.8 29.3333 14.6 28.7333 16.8666 28.7333C17.6333 28.7333 18.3333 28.8 19.2333 28.9333C20 29.0333 20.9 29.2 21.7666 29.4V27.8C21.7666 26.1 21.4333 25 20.7333 24.2333C20 23.5333 18.8333 23.2333 17.1333 23.2333C16.3333 23.2333 15.5333 23.3333 14.7333 23.5C13.9 23.7 13.1 23.9333 12.3333 24.2666C11.9666 24.4 11.6666 24.5 11.5666 24.5333C11.4 24.6 11.3 24.6 11.2 24.6C10.9 24.6 10.7333 24.4 10.7333 23.9333V22.8333C10.7333 22.5 10.7666 22.2333 10.9 22.0666C11 21.9 11.2 21.7666 11.5 21.6666C12.3 21.2 13.2 20.8666 14.3 20.6C15.4315 20.3041 16.5971 20.1584 17.7666 20.1666C20.4 20.1666 22.3333 20.7666 23.5666 21.9666C24.8 23.1666 25.4 25 25.4 27.4333V34.6H25.4666ZM16.4666 38C17.2 38 17.9333 37.8666 18.7333 37.6C19.5333 37.3333 20.2333 36.8333 20.8333 36.1666C21.2 35.7333 21.4666 35.2666 21.6666 34.7333C21.6666 34.2 21.8333 33.5666 21.8333 32.8V31.9C21.1666 31.6666 20.5 31.6666 19.7666 31.5C19.08 31.425 18.3905 31.3805 17.7 31.3666C16.2 31.3666 15.1333 31.6666 14.4 32.2666C13.6666 32.8666 13.3333 33.7 13.3333 34.8C13.3333 35.8666 13.5666 36.6666 14.1333 37.1666C14.6666 37.7333 15.4333 38 16.4666 38ZM34.2666 40.3666C33.9439 40.3763 33.6237 40.3077 33.3333 40.1666C33.2333 40 33.0666 39.7 32.9333 39.3L27.7333 22.1666C27.6 21.6666 27.5333 21.4333 27.5333 21.2666C27.5333 20.9 27.7 20.7 28.0666 20.7H30.2333C30.6666 20.7 30.9666 20.7666 31.1 20.9333C31.3 21.0666 31.4333 21.3666 31.5666 21.8L35.2666 36.4666L38.7333 21.8C38.8333 21.3666 38.9666 21.0666 39.1666 20.9333C39.3333 20.8 39.6333 20.7 40 20.7H41.8333C42.2333 20.7 42.5333 20.7666 42.7 20.9333C42.8666 21.0666 43.0333 21.3666 43.1333 21.8L46.6666 36.6666L50.4666 21.8C50.6 21.3666 50.7666 21.0666 50.9 20.9333C51.1 20.8 51.3666 20.7 51.7666 20.7H53.8333C54.2 20.7 54.4 20.9 54.4 21.2666C54.4 21.3666 54.3666 21.5 54.3333 21.6666C54.3333 21.6666 54.2666 21.9333 54.2 22.1666L48.8333 39.3C48.7 39.7666 48.5666 40 48.3333 40.1666C48.2 40.3 47.9 40.4 47.5333 40.4H45.6333C45.2 40.4 45 40.3333 44.7333 40.1666C44.5091 39.929 44.3687 39.6247 44.3333 39.3L40.9 25L37.4666 39.2666C37.3666 39.7 37.2333 40 37.0666 40.1666C36.7914 40.3166 36.4795 40.3859 36.1666 40.3666H34.2666ZM62.7666 40.9666C61.6666 40.9666 60.4333 40.8333 59.3333 40.5666C58.2333 40.3 57.3666 40 56.8 39.7C56.5105 39.5607 56.2674 39.3408 56.1 39.0666C56.0094 38.8797 55.9637 38.6743 55.9666 38.4666V37.3333C55.9666 36.8666 56.1333 36.6666 56.4666 36.6666H56.8666C57 36.6666 57.2 36.8333 57.4333 36.9333C58.1666 37.2666 59 37.5333 59.8666 37.7C60.7666 37.8666 61.6666 37.9666 62.5 37.9666C63.9 37.9666 65 37.7333 65.7333 37.2333C66.5 36.6666 66.9 36.0333 66.9 35.1333C66.9 34.5 66.6666 34 66.3 33.5666C65.9 33.1666 65.1333 32.7666 64.0666 32.4333L60.8333 31.4333C59.2333 30.9 58.0333 30.1666 57.3 29.1666C56.5843 28.241 56.1973 27.1033 56.2 25.9333C56.2 25 56.4 24.2 56.8 23.5C57.2 22.7666 57.7333 22.1666 58.3333 21.6666C59.0666 21.1666 59.8 20.8 60.7 20.5333C61.5666 20.2666 62.5 20.1333 63.5 20.1333C63.9666 20.1333 64.4666 20.1666 65 20.2333C65.4666 20.3 65.9333 20.4 66.4 20.4666C66.8666 20.6 67.2666 20.7 67.6666 20.8333C68.0666 20.9666 68.3333 21.1 68.6 21.2333C68.9 21.4 69.1333 21.5666 69.2666 21.7666C69.4 21.9666 69.4666 22.2 69.4666 22.5V23.5666C69.4666 24.0333 69.3 24.2666 68.9666 24.2666C68.8 24.2666 68.5 24.1666 68.1 24C66.8666 23.4333 65.4333 23.1333 63.8666 23.1333C62.6 23.1333 61.6666 23.3333 60.9 23.7666C60.2333 24.1666 59.8666 24.8333 59.8666 25.7333C59.8666 26.3666 60.1 26.9 60.5333 27.3C60.9666 27.7333 61.8 28.1333 62.9666 28.5333L66.1333 29.5333C67.7333 30 68.8666 30.7333 69.5666 31.6666C70.2333 32.5666 70.5666 33.6 70.5666 34.7666C70.5666 35.7 70.3666 36.5666 70 37.3333C69.6 38.0666 69.0666 38.7333 68.3333 39.2666C67.7 39.8333 66.8666 40.2333 65.9333 40.5333C65 40.8333 63.8666 40.9666 62.7666 40.9666ZM66.9333 51.7666C59.6333 57.1333 49.0333 60 40 60C27.1666 60 15.6666 55.2666 6.96662 47.4333C6.26662 46.8 6.89995 45.9666 7.73329 46.4666C17.1333 51.9 28.7 55.2 40.7 55.2C48.8 55.2 57.7 53.5333 65.8666 50C67.1 49.5 68.1333 50.8666 66.9333 51.7666ZM70 48.3333C69.0333 47.1 63.8 47.7333 61.4333 48C60.7333 48.1 60.6333 47.4666 61.2666 47C65.4333 44.1 72.3 45 73.0666 45.9C73.8666 46.9 72.8666 53.7666 68.9666 57.0333C68.3333 57.5333 67.7666 57.2666 68.0333 56.6666C68.9333 54.4 70.9 49.4666 70 48.3333Z" fill="#9F9F9F"/>
</svg>
