<svg width="80" height="80" viewBox="0 0 80 80" fill="none" xmlns="http://www.w3.org/2000/svg">
<path d="M37.0625 79.7512C30.0587 79.0794 23.7794 76.9994 18.7575 73.6887L17.7025 72.9931L17.4487 71.035C17.1675 68.855 16.8725 65.3881 16.875 64.2475V63.5037L20.1512 63.4769C21.9531 63.4619 23.9744 63.3937 24.6437 63.3206C25.7056 63.2081 25.9156 63.2275 26.3012 63.4694C29.8731 65.7106 35.3294 67.1975 39.9706 67.1925C47.4075 67.1875 53.9794 64.4456 59.2844 59.1362C61.6306 56.7869 62.92 55.0219 64.3281 52.2237C68.1956 44.5531 68.2787 35.7762 64.5606 28.0981C60.8794 20.4981 53.7012 14.9144 45.4981 13.2738C43.3837 12.8488 40.4712 12.6244 38.7306 12.7487L37.3119 12.8519L37.6706 12.3437C37.8706 12.0656 39.1869 10.6563 40.5981 9.21375L43.1644 6.59188L42.1094 5.61063C40.6175 4.21875 38.5569 2.5 37.0119 1.355L35.6887 0.376251L36.1862 0.258751C37.1706 0.026876 42.915 0.097501 44.9706 0.366251C61.8606 2.57313 75.3419 14.8412 79.0019 31.3381C80.2 36.7312 80.2244 42.705 79.075 48.2862C77.6219 55.33 73.9281 62.2756 68.7987 67.605C62.1482 74.5115 53.238 78.7993 43.6912 79.6875C42.0994 79.8362 38.3194 79.8706 37.0625 79.7512ZM12.0706 68.2862C9.80687 66.0256 6.74812 62.3537 6.95562 62.1462C6.99437 62.1069 7.84937 62.2437 8.8525 62.4462C10.3762 62.7562 13.8037 63.2762 14.3212 63.2762C14.3994 63.2762 14.465 63.9231 14.4675 64.7462C14.47 66.0937 14.6112 68.025 14.8537 70.0194C14.9219 70.5812 14.8975 70.8106 14.7725 70.8106C14.675 70.8106 13.4569 69.6756 12.0706 68.2862ZM16.875 60.21C16.875 58.9969 17.19 55.3831 17.3069 55.2562C17.3631 55.1975 17.8394 55.7175 18.3669 56.4137C18.8919 57.1119 20.0831 58.4325 21.0131 59.3481L22.7025 61.0181H16.875V60.21ZM13.7844 60.7644C11.2644 60.4544 6.14687 59.4706 5.74 59.2187C5.615 59.1406 5.76437 58.535 6.265 57.0875C6.92625 55.1831 8.48625 51.4406 8.73062 51.1794C8.79125 51.1156 9.61437 51.465 10.5594 51.9581C11.5062 52.4512 12.8781 53.1106 13.6131 53.4275L14.9462 53.9987L14.8537 54.6875C14.6412 56.2937 14.47 58.4669 14.4675 59.6237C14.4656 60.3075 14.4112 60.8569 14.3506 60.845C14.2869 60.8325 14.0331 60.7962 13.7844 60.7644ZM2.82937 54.2825C2.00695 52.1185 1.36272 49.8908 0.90312 47.6219C0.437495 45.3125 0.45187 45.2956 1.8875 46.4281C2.55125 46.9531 3.82312 47.8781 4.7125 48.4812C5.6 49.0875 6.32812 49.6069 6.32812 49.6337C6.32812 49.6631 6.05 50.2881 5.71062 51.0206C5.25364 52.0321 4.82122 53.0545 4.41374 54.0869C4.04062 55.0387 3.68625 55.8744 3.62312 55.94C3.56187 56.0056 3.20562 55.2587 2.82937 54.2825ZM13.6669 50.3856C12.51 49.8537 10.4106 48.7819 10.1244 48.5794C10.0656 48.5375 11.6137 45.9862 12.4025 44.8269L13.02 43.9162L13.1275 44.37C13.8181 47.2606 14.2337 48.7306 14.6631 49.8C14.9444 50.5 15.1662 51.0719 15.1587 51.0719C15.1487 51.0694 14.4775 50.7619 13.6669 50.3856ZM5.78125 45.8625C4.155 44.7269 1.4375 42.5887 1.26687 42.3125C1.10625 42.0512 6.64312 36.685 7.075 36.685C7.14625 36.685 7.74687 37.3975 8.40812 38.2675C9.0725 39.1387 9.95812 40.245 10.3806 40.7256C10.8031 41.2069 11.1494 41.6319 11.1494 41.6706C11.1494 41.7094 10.6181 42.5375 9.96562 43.5087C9.31625 44.4781 8.56187 45.665 8.29375 46.1406C8.025 46.6169 7.72 47.0075 7.6125 47.0075C7.5075 47.0075 6.68187 46.4925 5.78125 45.8625ZM0.151245 38.64C0.17312 36.7481 0.81062 32.4387 1.43562 29.9631C2.05562 27.5125 1.93375 27.5294 3.05937 29.7556C3.60125 30.8325 4.34562 32.2144 4.70937 32.8294L5.37125 33.9431L4.22874 34.9219C3.60124 35.4594 2.42687 36.55 1.61874 37.3437C0.81062 38.1394 0.151245 38.7231 0.151245 38.64ZM12.2637 38.1444C11.0744 36.7256 9.65312 34.7556 9.72875 34.6337C9.83125 34.4675 11.5869 33.2762 13.015 32.4025C13.9719 31.8162 14.0456 31.7944 13.95 32.1169C13.5987 33.32 13.1 35.8494 12.9612 37.1294C12.8712 37.9519 12.7831 38.6425 12.7637 38.6619C12.7444 38.6812 12.52 38.4475 12.2637 38.1444ZM7.03625 30.6006C5.47375 27.8781 3.66937 23.9844 3.87937 23.7913C4.21687 23.4763 9.94375 21.8725 11.6356 21.6187L12.295 21.5188L12.6269 23.5281C12.8081 24.6344 13.1125 26.1862 13.3056 26.98L13.655 28.425L12.4175 29.1281C11.7362 29.5169 10.4319 30.3319 9.52125 30.94L7.86625 32.0462L7.03625 30.6006ZM16.2894 24.365C16.1311 23.5207 15.9836 22.6743 15.8469 21.8263L15.72 20.9763L16.4887 20.8862C16.9137 20.8375 18.0712 20.7519 19.0625 20.6987L20.8669 20.6031L20.2487 21.2625C19.2287 22.3513 18.0687 23.8138 17.3144 24.9688L16.6037 26.0544L16.2894 24.365ZM6.18937 18.855C7.21937 17.1094 10.4737 12.9662 11.5769 11.9925L11.9019 11.7044V18.0369L10.5831 18.2931C9.43625 18.5156 6.985 19.1137 6.11312 19.3825C5.84687 19.4656 5.8525 19.4212 6.18937 18.855ZM15.3956 13.745C15.4225 11.6675 15.4831 9.92938 15.5325 9.88063C15.7012 9.70938 22.7537 11.1131 23.02 11.3694C23.045 11.3944 22.8325 12.1825 22.5487 13.125C22.2631 14.07 21.9112 15.3562 21.765 15.9837L21.4987 17.1312L19.375 17.225C18.2056 17.2762 16.8212 17.3637 16.2987 17.42L15.3469 17.5225L15.3956 13.745ZM25.4612 16.8337C25.4612 16.765 26.0594 14.6044 26.3769 13.53L26.675 12.5244L28.5156 13.2812C30.9544 14.2844 30.8987 14.2481 30.3537 14.475C29.0819 15.01 26.985 16.025 26.3406 16.4231C25.6569 16.8431 25.4612 16.9337 25.4612 16.8337ZM32.2412 10.7787C31.7019 10.5081 30.5394 9.995 29.6581 9.63875L28.0544 8.99188L28.2106 8.545C28.4081 7.97875 30.615 3.55438 31.0281 2.895L31.3381 2.4L32.28 3.03438C33.5131 3.86938 35.7787 5.56375 36.5256 6.21313L37.1194 6.72875L35.5444 8.52563C34.68 9.51188 33.8037 10.5344 33.5962 10.7956L33.22 11.2744L32.2412 10.7787ZM22.3725 7.2925C21.3977 7.04362 20.4188 6.81088 19.4362 6.59438L18.455 6.39188L19.7825 5.60313C20.5746 5.1372 21.379 4.69267 22.195 4.27C23.3544 3.68438 26.8506 2.24375 26.9262 2.31938C26.9512 2.34375 26.6825 2.93438 26.3262 3.63063C25.9719 4.32625 25.415 5.50563 25.0906 6.2525C24.7656 6.99688 24.4631 7.64875 24.4162 7.6975C24.37 7.74688 23.45 7.56375 22.3725 7.2925Z" fill="#9F9F9F"/>
</svg>
