<svg width="80" height="80" viewBox="0 0 80 80" fill="none" xmlns="http://www.w3.org/2000/svg">
<path d="M53.75 74C53.75 73.8125 53.8125 73.625 53.75 73.4375C53.625 73.25 53.5625 73.125 53.4375 73C53.125 72.625 52.8125 72.3125 52.4375 71.9375L48.75 68.1875L51.625 65.25L53.1875 63.5625C53.4375 63.3125 53.75 62.8125 53.75 62.4375V62.1875C53.75 61.625 53.5 61.3125 52.9375 61.1875L53.0625 61.25H52.625C52.25 61.25 51.1875 62.25 50.9375 62.5625C50 63.5 49.375 64.375 48.125 65.3125V57.875C48.125 57.1875 47.75 56.875 47.0625 56.875H46.875C46.1875 56.875 45.625 57.1875 45.625 57.875V74.0625C45.625 74.75 46.1875 75 46.875 75H47.0625C47.75 75 48.125 74.6875 48.125 74.0625V71.1875L50 73C50.5625 73.5625 51.125 73.9375 51.625 74.4375C51.875 74.6875 52.375 75 52.75 75H52.9375C53.5625 75 53.75 74.6875 53.875 74.1875L53.75 74.25V74ZM78.1875 61.25H77.9375C76.5625 61.25 75.3125 61.625 74.1875 62.4375C72.3125 63.8125 71.25 65.625 71.25 68V74.125C71.25 74.8125 71.5 75 72.1875 75H72.375C73.0625 75 73.75 74.75 73.75 74.125V68.375C73.75 67.125 74 65.9375 74.9375 65C75.6875 64.25 76.625 63.625 77.6875 63.625C78.5 63.625 79.4375 63.4375 79.4375 62.4375C79.4375 61.6875 78.875 61.25 78.1875 61.25ZM68.5625 64.375C67.875 63.25 66.9375 62.375 65.75 61.8125C63.5625 60.75 61.25 60.625 59.125 61.875L58.8125 62.0625C57.9375 62.5625 57.1875 63.1875 56.625 64C55 66.375 54.8125 69.0625 56.25 71.5625L56.375 71.8125C57 72.875 57.8125 73.75 58.875 74.3125C61.125 75.5625 63.5625 75.6875 65.8125 74.4375L66 74.3125C66.625 73.9375 66.75 73.3125 66.4375 72.6875C66.3125 72.4375 66.0625 72.25 65.8125 72.125H65.6875C65.25 72.0625 64.0625 72.5625 63.625 72.75C62.75 72.875 61.75 72.9375 60.875 72.625L65.625 68.5C66.3125 67.875 67.0625 67.1875 67.8125 66.625C68.4375 66.125 69.0625 65.4375 68.5625 64.5625V64.375ZM64.25 66.625L58.9375 71.1875C58.75 71 58.625 70.75 58.5 70.5625C58.125 69.9375 57.875 69.1875 57.875 68.4375C57.8125 66.5625 58.5 65 60.1875 64.0625C61.4375 63.3125 62.8125 63.1875 64.1875 63.6875C64.875 63.9375 65.6875 64.375 66.125 65C65.5 65.5625 64.8125 66.0625 64.25 66.625ZM13.75 56.875H13.5625C12.875 56.875 12.5 57.125 12.5 57.8125V62.875C11.25 61.75 9.75 61.3125 8 61.3125H7.5C6.3125 61.3125 5.1875 61.5 4.125 62.125C1.875 63.4375 0.625 65.375 0.625 68V68.5C0.625 69.6875 0.9375 70.6875 1.5625 71.75C2.875 74 4.9375 75.125 7.5 75.125H8C9.1875 75.125 10.4375 74.9375 11.4375 74.375C13.6875 73.0625 15 71.125 15 68.5625V57.9375C15 57.125 14.4375 56.875 13.75 56.875ZM11.8125 70.5C10.875 72.0625 9.5 72.9375 7.6875 72.9375C6.9375 72.9375 6.1875 72.75 5.5625 72.375C3.9375 71.5 3 70.0625 3 68.1875C3 67.5 3.125 66.875 3.4375 66.25C4.3125 64.4375 5.75 63.4375 7.75 63.4375C8.75 63.4375 9.625 63.75 10.375 64.3125C11.6875 65.25 12.4375 66.5 12.4375 68.125C12.5 69 12.25 69.75 11.8125 70.5ZM23.5 61.25H23.125C21.9375 61.25 20.75 61.4375 19.75 62.0625C17.5 63.375 16.25 65.3125 16.25 67.9375V68.4375C16.25 69.625 16.5625 70.625 17.1875 71.6875C18.5 73.9375 20.5625 75.0625 23.1875 75.0625H23.6875C24.875 75.0625 26.0625 74.875 27.125 74.3125C29.375 73 30.6875 71.0625 30.6875 68.5V68C30.6875 66.875 30.3125 65.9375 29.8125 65C28.4375 62.5 26.25 61.25 23.5 61.25ZM27.5 70.5C26.5625 72 25.25 72.9375 23.4375 72.9375C22.625 72.9375 21.8125 72.75 21.0625 72.3125C19.5 71.375 18.625 70.0625 18.625 68.25C18.625 67.5625 18.75 66.9375 19.0625 66.3125C19.9375 64.5 21.375 63.5 23.375 63.5C24.3125 63.5 25.125 63.75 25.875 64.25C27.25 65.1875 28.0625 66.5 28.0625 68.1875C28.125 68.9375 27.9375 69.75 27.5 70.5ZM42.8125 62.125L42.75 62.1875C41.6875 61.5 40.5 61.25 39.25 61.25H38.75C37.5625 61.25 36.375 61.4375 35.375 62.0625C33.125 63.375 31.875 65.3125 31.875 67.875V68.375C31.875 69 32 69.5625 32.125 70.1875C33.125 73.625 35.8125 75.5625 39.4375 75.3125C40.4375 75.25 43.125 74.9375 43.125 73.4375V73.1875C43.125 72.625 42.6875 72.125 42.1875 72L42.125 71.875H41.6875L41.5625 72.0625C41 72.3125 40.0625 72.8125 39.4375 72.8125C38.6875 72.8125 37.875 72.8125 37.1875 72.4375C35.375 71.5625 34.3125 70.125 34.3125 68.125C34.3125 67.4375 34.4375 66.8125 34.75 66.1875C35.625 64.4375 37.0625 63.3125 39.0625 63.375C39.4375 63.375 40.125 63.5625 40.5 63.75C40.8125 63.875 41.625 64.375 42 64.375H42.125L42.1875 64.25C42.75 64.125 43.1875 63.6875 43.1875 63.125V62.875C43.1875 62.625 43.0625 62.4375 42.9375 62.25L42.8125 62.125ZM3.625 42.625L3.6875 42.75C8.625 51.125 17.25 54.625 26.6875 54.625C44.9375 54.625 60 46.4375 66.875 29.25C71.5 29.5 76.25 28.125 78.5 23.6875L79.0625 22.5625L77.9375 21.9375C75.25 20.375 71.6875 20.1875 68.6875 21.0625C68.3125 17.8125 66.1875 15 63.6875 13L62.6875 12.1875L61.875 13.1875C60.1875 15.125 59.6875 18.375 59.9375 20.875C60.125 22.6875 60.6875 24.5625 61.8125 26.0625C60.9375 26.5625 60 27.25 59.125 27.5625C57.375 28.1875 55.4375 28.8125 53.5625 28.8125H49.375V20H41.25V4.375H31.875V11.875H16.25V20H8.125V28.75H1.125L1 29.6875C0.6875 33.6875 1.1875 37.5625 2.875 41.25L3.625 42.625ZM41.25 21.875H48.125V28.75H41.25V21.875ZM33.125 5.625H40V12.5H33.125V5.625ZM33.125 13.75H40V20.625H33.125V13.75ZM33.125 21.875H40V28.75H33.125V21.875ZM25 13.75H31.875V20.625H25V13.75ZM25 21.875H31.875V28.75H25V21.875ZM25.6875 41.375C25.6875 42.4375 24.8125 43.3125 23.75 43.3125C22.6875 43.3125 21.8125 42.4375 21.8125 41.375C21.8125 40.3125 22.6875 39.4375 23.75 39.4375C24.8125 39.5 25.6875 40.3125 25.6875 41.375ZM17.5 13.75H23.75V20.625H17.5V13.75ZM17.5 21.875H23.75V28.75H17.5V21.875ZM9.375 21.875H16.25V28.75H9.375V21.875ZM10.875 45.625C11.875 45.625 12.875 45.625 13.8125 45.5625C16.25 45.4375 18.375 45.125 20.125 44.625C21.5625 47.9375 24.1875 51 28.875 53.25L26.6875 53.3125C16.8125 53.25 11.5 49.9375 7.125 45.5625C8.4375 45.625 9.6875 45.625 10.875 45.625ZM23.75 42.75C24.5 42.75 25.125 42.125 25.125 41.375C25.125 41.1875 25.0625 41 25 40.875C24.875 41.0625 24.75 41.1875 24.5 41.1875C24.1875 41.1875 23.9375 40.9375 23.9375 40.625C23.9375 40.4375 24.0625 40.25 24.1875 40.125C24.125 40.0625 23.9375 40 23.75 40C23 40 22.375 40.625 22.375 41.375C22.4375 42.125 23 42.75 23.75 42.75Z" fill="#9F9F9F"/>
</svg>
