<svg width="80" height="81" viewBox="0 0 80 81" fill="none" xmlns="http://www.w3.org/2000/svg">
<path fill-rule="evenodd" clip-rule="evenodd" d="M28.89 32.1721C27.7593 32.1721 26.6397 32.3948 25.5951 32.8275C24.5505 33.2601 23.6013 33.8944 22.8018 34.6939C22.0023 35.4934 21.3681 36.4425 20.9354 37.4872C20.5027 38.5318 20.28 39.6514 20.28 40.7821C20.28 41.9127 20.5027 43.0323 20.9354 44.077C21.3681 45.1216 22.0023 46.0707 22.8018 46.8702C23.6013 47.6698 24.5505 48.304 25.5951 48.7367C26.6397 49.1693 27.7593 49.3921 28.89 49.3921H37.5V32.1721H28.89ZM37.5 27.1721H28.89C26.606 27.1721 24.4156 26.2648 22.8006 24.6498C21.1856 23.0348 20.2783 20.8443 20.2783 18.5604C20.2783 16.2764 21.1856 14.086 22.8006 12.471C24.4156 10.856 26.606 9.94873 28.89 9.94873H37.5V27.1721ZM42.5 9.94873V27.1721H51.11C53.3646 27.1277 55.5119 26.2009 57.0907 24.5907C58.6695 22.9806 59.5539 20.8154 59.5539 18.5604C59.5539 16.3053 58.6695 14.1402 57.0907 12.5301C55.5119 10.9199 53.3646 9.99309 51.11 9.94873H42.5ZM51.11 32.1687C48.85 32.1684 46.6804 33.0568 45.0696 34.642C43.4588 36.2273 42.5359 38.3823 42.5 40.6421V40.9187C42.5276 42.6154 43.0559 44.2661 44.0186 45.6634C44.9813 47.0608 46.3354 48.1426 47.9109 48.7728C49.4864 49.4031 51.213 49.5537 52.8739 49.2059C54.5347 48.858 56.0558 48.0271 57.2459 46.8176C58.4361 45.6081 59.2423 44.0739 59.5634 42.4076C59.8844 40.7414 59.7059 39.0174 59.0503 37.4523C58.3947 35.8872 57.2913 34.5506 55.8786 33.6106C54.4659 32.6706 52.8069 32.1689 51.11 32.1687ZM28.89 54.3921C27.1863 54.3914 25.5207 54.896 24.1038 55.842C22.6869 56.7881 21.5824 58.1331 20.9299 59.7069C20.2775 61.2807 20.1064 63.0127 20.4384 64.6837C20.7704 66.3548 21.5905 67.8898 22.7949 69.0947C23.9994 70.2997 25.5341 71.1203 27.205 71.453C28.876 71.7856 30.608 71.6152 32.1821 70.9634C33.7561 70.3116 35.1016 69.2076 36.0481 67.791C36.9947 66.3745 37.5 64.7091 37.5 63.0054V54.3921H28.89Z" fill="#9F9F9F"/>
</svg>
