<svg width="40" height="40" viewBox="0 0 40 40" fill="none" xmlns="http://www.w3.org/2000/svg">
<path fill-rule="evenodd" clip-rule="evenodd" d="M15 2.5C13.8397 2.5 12.7269 2.96094 11.9064 3.78141C11.0859 4.60188 10.625 5.71468 10.625 6.875V10H7.5C6.17392 10 4.90215 10.5268 3.96447 11.4645C3.02678 12.4021 2.5 13.6739 2.5 15V32.5C2.5 33.8261 3.02678 35.0979 3.96447 36.0355C4.90215 36.9732 6.17392 37.5 7.5 37.5H32.5C33.8261 37.5 35.0979 36.9732 36.0355 36.0355C36.9732 35.0979 37.5 33.8261 37.5 32.5V15C37.5 13.6739 36.9732 12.4021 36.0355 11.4645C35.0979 10.5268 33.8261 10 32.5 10H29.375V6.875C29.375 5.71468 28.9141 4.60188 28.0936 3.78141C27.2731 2.96094 26.1603 2.5 25 2.5H15ZM25.625 10V6.875C25.625 6.70924 25.5592 6.55027 25.4419 6.43306C25.3247 6.31585 25.1658 6.25 25 6.25H15C14.8342 6.25 14.6753 6.31585 14.5581 6.43306C14.4408 6.55027 14.375 6.70924 14.375 6.875V10H25.625ZM7.5 13.75H32.5C32.8315 13.75 33.1495 13.8817 33.3839 14.1161C33.6183 14.3505 33.75 14.6685 33.75 15V17.5H6.25V15C6.25 14.6685 6.3817 14.3505 6.61612 14.1161C6.85054 13.8817 7.16848 13.75 7.5 13.75ZM6.25 21.25V32.5C6.25 32.8315 6.3817 33.1495 6.61612 33.3839C6.85054 33.6183 7.16848 33.75 7.5 33.75H32.5C32.8315 33.75 33.1495 33.6183 33.3839 33.3839C33.6183 33.1495 33.75 32.8315 33.75 32.5V21.25H22.5V25H17.5V21.25H6.25Z" fill="#FFC763"/>
</svg>
