<svg width="80" height="81" viewBox="0 0 80 81" fill="none" xmlns="http://www.w3.org/2000/svg">
<path d="M8.66665 36.082L27.9333 16.782L33.5666 22.4486C32.7666 25.282 34.0666 28.382 36.6666 29.882V48.3486C34.6666 49.482 33.3333 51.6486 33.3333 54.1153C33.3333 55.8834 34.0357 57.5791 35.2859 58.8293C36.5362 60.0796 38.2319 60.782 40 60.782C41.7681 60.782 43.4638 60.0796 44.714 58.8293C45.9643 57.5791 46.6666 55.8834 46.6666 54.1153C46.6666 51.6486 45.3333 49.482 43.3333 48.3486V32.1486L50.2333 39.1153C50 39.6153 50 40.182 50 40.782C50 42.5501 50.7024 44.2458 51.9526 45.496C53.2028 46.7462 54.8985 47.4486 56.6666 47.4486C58.4347 47.4486 60.1304 46.7462 61.3807 45.496C62.6309 44.2458 63.3333 42.5501 63.3333 40.782C63.3333 39.0138 62.6309 37.3182 61.3807 36.0679C60.1304 34.8177 58.4347 34.1153 56.6666 34.1153C56.0666 34.1153 55.5 34.1153 55 34.3486L46.4333 25.782C46.8472 24.2381 46.6867 22.5965 45.9817 21.1619C45.2767 19.7274 44.0751 18.5975 42.6 17.982C41.1666 17.4486 39.6666 17.3153 38.3333 17.682L32.6666 12.0486L35.3 9.44863C37.9 6.8153 42.1 6.8153 44.7 9.44863L71.3333 36.082C73.9666 38.682 73.9666 42.882 71.3333 45.482L44.7 72.1153C42.1 74.7486 37.9 74.7486 35.3 72.1153L8.66665 45.482C6.03332 42.882 6.03332 38.682 8.66665 36.082Z" fill="#9F9F9F"/>
</svg>
