<svg width="80" height="80" viewBox="0 0 80 80" fill="none" xmlns="http://www.w3.org/2000/svg">
<path d="M7.09625 71.9462C5.57125 71.9462 4.02188 71.3162 3.04938 70.0806V76.7537H0V60.2819H2.75813L2.86687 62.0881C3.81312 60.695 5.49437 59.9594 7.09687 59.9612C10.17 59.9612 12.4369 62.5362 12.4369 65.9531C12.4369 69.37 10.1687 71.9487 7.09562 71.9469L7.09625 71.9462ZM6.15188 62.225C4.37125 62.225 2.91813 63.6175 2.91813 65.9562C2.91813 68.295 4.3625 69.6875 6.15 69.6875C7.9375 69.6875 9.37875 68.295 9.37875 65.9562C9.37875 63.6175 7.93688 62.225 6.15125 62.225H6.15188ZM23.9281 71.6337L23.8225 69.8212C22.8775 71.2137 21.195 71.9494 19.5938 71.9494C16.5188 71.9494 14.255 69.3737 14.255 65.9575C14.255 62.5425 16.5144 59.9662 19.5938 59.9681C21.1944 59.9681 22.8775 60.7094 23.8225 62.0956L23.9287 60.2837H26.6875V71.635L23.9281 71.6337ZM20.54 62.2256C18.76 62.2256 17.3081 63.6181 17.3081 65.9569C17.3081 68.2956 18.7519 69.6881 20.5394 69.6881C22.3269 69.6881 23.7706 68.2956 23.7706 65.9587C23.7706 63.6212 22.3269 62.235 20.5394 62.2262L20.54 62.2256ZM37.3513 71.6362V65.35C37.3513 63.1431 36.5887 62.4069 35.1969 62.4069C33.7525 62.4069 32.1756 63.7194 32.1738 65.2962V71.6287H29.1275V60.2837H31.9206L32.0506 62.3869C32.8131 60.9412 34.5212 59.9694 36.255 59.9694C39.2756 59.9694 40.4075 62.0725 40.4075 64.8844V71.6362H37.3513ZM51.5737 71.6375L51.4675 69.8244C50.5231 71.2169 48.8419 71.9519 47.2381 71.9519C44.1644 71.9519 41.8994 69.3769 41.8994 65.9612C41.8994 62.5456 44.1594 59.9712 47.2381 59.9712C48.7613 59.9712 50.3125 60.6025 51.2844 61.8375V55.8731H54.3319V71.6381L51.5737 71.6375ZM48.1862 62.2356C46.3987 62.2356 44.9531 63.6281 44.9531 65.9669C44.9531 68.3056 46.3969 69.6962 48.1844 69.6981C49.9719 69.6981 51.4156 68.3056 51.4156 65.9669C51.4156 63.6281 49.9719 62.2356 48.1862 62.2356ZM65.7844 71.6394L65.68 69.8269C64.7337 71.2194 63.0512 71.9556 61.45 71.9537C58.3756 71.9537 56.1112 69.3787 56.1112 65.9637C56.1112 62.5481 58.3712 59.9725 61.45 59.9737C63.0512 59.9737 64.7337 60.7156 65.68 62.1019L65.7856 60.2894H68.5512V71.6394H65.7844ZM62.3962 62.2356C60.6094 62.2356 59.165 63.6281 59.165 65.9669C59.165 68.3056 60.6094 69.6981 62.3962 69.6981C64.1831 69.6981 65.6275 68.3056 65.6275 65.9669C65.6275 63.6281 64.1837 62.2356 62.3962 62.2356ZM75.2975 72.0087C73.6939 71.9961 72.1234 71.5513 70.7513 70.7212L71.25 68.6125C72.17 69.1644 73.5625 69.875 75.2437 69.875C76.4519 69.875 77.2937 69.5069 77.2937 68.56C77.2937 67.7469 76.4269 67.4569 74.8756 67.0894C72.0925 66.4844 71.0931 65.0137 71.0944 63.4106C71.0944 61.6306 72.4869 59.9431 75.5613 59.9431C77.4269 59.9431 79.055 60.7587 79.4169 60.9681L78.9231 62.9775C77.9307 62.379 76.7981 62.0525 75.6394 62.0306C74.4044 62.0306 73.7994 62.4506 73.7994 63.1337C73.7994 63.895 74.5881 64.2375 75.7969 64.5262C78.7906 65.1575 80 66.5494 80 68.0744C80 70.5119 78.2125 72.0087 75.2975 72.0087ZM32.7737 6.17188H38.1869V17.4144H32.7737V6.17188ZM32.7737 29.2644H38.1869V40.5062H32.7737V29.2644Z" fill="#9F9F9F"/>
<path d="M32.7737 20.6975H38.1874V26.0013H32.7737V20.6975Z" fill="#9F9F9F"/>
<path d="M24.0762 15.4155H29.4899V52.7843H24.0762V15.4155ZM41.2912 38.5393H46.7055V49.7812H41.2912V38.5393ZM41.2912 15.4293H46.7055V26.6712H41.2912V15.4293Z" fill="#9F9F9F"/>
<path d="M41.2913 29.9524H46.7056V35.2555H41.2913V29.9524Z" fill="#9F9F9F"/>
<path d="M49.8062 3.24634H55.2205V40.6138H49.8062V3.24634Z" fill="#9F9F9F"/>
</svg>
