<svg width="80" height="80" viewBox="0 0 80 80" fill="none" xmlns="http://www.w3.org/2000/svg">
<path d="M33.9262 16.2548L19.674 9.50953L4.02683 16.8308L18.6678 23.7233L33.9262 16.2548ZM40.4637 19.3472L55.4078 26.4237L39.9037 33.7223L25.24 26.8197L40.4637 19.3472ZM60.4247 9.61016L75.7793 16.8308L62.045 23.2958L47.0703 16.2122L60.4247 9.61016ZM53.8147 6.50047L39.9913 0L26.3187 6.4L40.5633 13.1341L53.8147 6.50047ZM43.0088 62.3122V80L59.7532 72.1641L59.738 54.4691L43.0088 62.3122ZM59.7305 48.2934L59.7108 30.7855L43.0088 38.5716V56.0859L59.7305 48.2934ZM79.8333 45.0142V62.7703L65.5498 69.4506L65.5378 51.777L79.8333 45.0142ZM79.8333 38.8052V21.4058L65.5347 28.0748V45.6186L79.8333 38.8052ZM37.0975 38.5716L25.8193 33.2512V56.23L10.7485 26.2359C10.5838 25.9159 9.908 25.5667 9.73467 25.4803L0 20.8228V61.4347L10.0272 66.4738V45.2369L23.8157 70.0986C23.9575 70.3677 25.3202 72.9564 26.7865 73.8662C28.7328 75.0798 37.0898 79.7909 37.0898 79.7909L37.0975 38.5716Z" fill="#9F9F9F"/>
</svg>
