<svg width="80" height="81" viewBox="0 0 80 81" fill="none" xmlns="http://www.w3.org/2000/svg">
<path fill-rule="evenodd" clip-rule="evenodd" d="M30.8344 59.9218C30.8344 59.9218 28.1527 61.4804 32.7362 62C38.2908 62.6289 41.123 62.5468 47.2387 61.3848C47.2387 61.3848 48.8531 62.3964 51.0969 63.2714C37.3879 69.1366 20.0669 62.9296 30.8344 59.9218ZM29.1651 52.2521C29.1651 52.2521 26.1689 54.4669 30.7523 54.9454C36.6765 55.5607 41.3692 55.6017 49.4687 54.0431C49.4687 54.0431 50.5906 55.1778 52.3556 55.7931C35.7598 60.6464 17.2895 56.1896 29.1651 52.2521ZM43.2847 39.2503C46.6641 43.1331 42.3953 46.633 42.3953 46.633C42.3953 46.633 50.9737 42.2033 47.0334 36.6664C43.353 31.4984 40.5346 28.9282 55.8034 20.0825C55.817 20.0825 31.8332 26.0708 43.2847 39.2503ZM61.4266 65.5819C61.4266 65.5819 63.4104 67.2089 59.2511 68.4803C51.3294 70.8729 26.3058 71.5975 19.3555 68.576C16.8517 67.496 21.5445 65.9784 23.0222 65.6639C24.5544 65.3358 25.4438 65.3905 25.4438 65.3905C22.6664 63.4354 7.47975 69.2323 17.7273 70.8866C45.6652 75.4257 68.6777 68.8495 61.4266 65.5819ZM32.1205 44.3089C32.1205 44.3089 19.3828 47.3303 27.6055 48.424C31.0806 48.8889 38.0035 48.7795 44.4476 48.2463C49.7151 47.8088 55.0098 46.8517 55.0098 46.8517C55.0098 46.8517 53.1491 47.6447 51.8083 48.5607C38.8791 51.965 13.9101 50.3791 21.093 46.9064C27.1812 43.9807 32.1204 44.3088 32.1204 44.3088M54.9687 57.0645C68.1169 50.2423 62.0285 43.68 57.7873 44.5685C56.7474 44.7873 56.2823 44.9787 56.2823 44.9787C56.2823 44.9787 56.6653 44.3771 57.4041 44.1174C65.7909 41.1642 72.2487 52.8126 54.6951 57.42C54.6951 57.4063 54.9004 57.2285 54.9687 57.0645ZM47.0334 5.78198C47.0334 5.78198 54.312 13.0554 40.1242 24.2387C28.7547 33.2075 37.5247 38.3343 40.1242 44.1721C33.4886 38.1839 28.618 32.9203 31.8879 28.0121C36.6901 20.8345 49.975 17.3346 47.0334 5.78198ZM33.4201 75.5623C46.0347 76.3689 65.4079 75.1111 65.8594 69.1502C65.8594 69.1502 64.9837 71.406 55.434 73.2107C44.6665 75.2342 31.3816 75.0017 23.5147 73.7029C23.5147 73.6892 25.1291 75.0291 33.4201 75.5623Z" fill="#9F9F9F"/>
</svg>
