<svg width="80" height="81" viewBox="0 0 80 81" fill="none" xmlns="http://www.w3.org/2000/svg">
<mask id="mask0_209_773" style="mask-type:luminance" maskUnits="userSpaceOnUse" x="0" y="0" width="80" height="81">
<path d="M0 0.781982H80V80.782H0V0.781982Z" fill="white"/>
</mask>
<g mask="url(#mask0_209_773)">
<path d="M39.7133 0.781982C19.4 0.781982 20.6667 9.63531 20.6667 9.63531L20.69 18.8086H40.07V21.562H13C13 21.562 0 20.0786 0 40.6786C0 61.2786 11.3433 60.5453 11.3433 60.5453H18.11V50.9886C18.11 50.9886 17.7467 39.5886 29.2767 39.5886H48.4967C48.4967 39.5886 59.2967 39.762 59.2967 29.0953V11.4553C59.2967 11.4553 60.9367 0.781982 39.7133 0.781982ZM29.0267 6.94865C30.9533 6.94865 32.5133 8.51531 32.5133 10.4553C32.5133 12.392 30.9533 13.9586 29.0267 13.9586C27.1 13.9586 25.54 12.392 25.54 10.4553C25.54 8.51531 27.0967 6.94865 29.0267 6.94865Z" fill="#9F9F9F"/>
<path d="M40.29 80.7819C60.5966 80.7819 59.33 71.9286 59.33 71.9286L59.3066 62.7553H39.9266V60.002H67.0033C67.0033 60.002 80.0033 61.4853 80.0033 40.8853C80.0033 20.2853 68.6566 21.0186 68.6566 21.0186H61.89V30.5753C61.89 30.5753 62.2533 41.9753 50.7233 41.9753H31.5066C31.5066 41.9753 20.7066 41.8019 20.7066 52.4686V70.1086C20.7066 70.1086 19.0666 80.7819 40.29 80.7819ZM50.9766 74.6153C49.0466 74.6153 47.49 73.0486 47.49 71.1086C47.49 69.1719 49.0466 67.6053 50.9766 67.6053C52.9033 67.6053 54.4633 69.1719 54.4633 71.1086C54.4633 73.0486 52.9033 74.6153 50.9766 74.6153Z" fill="#9F9F9F"/>
</g>
</svg>
