<svg width="80" height="80" viewBox="0 0 80 80" fill="none" xmlns="http://www.w3.org/2000/svg">
<path d="M66.38 19.6267C55.1333 5.06 34.2 2.36667 19.6267 13.62C5.06 24.8667 2.36667 45.8 13.62 60.3733C24.87 74.94 45.8033 77.6333 60.3733 66.38L60.38 66.3733C74.9433 55.12 77.63 34.1933 66.38 19.6267ZM57.85 27.9433L55.25 25.3833L54.6867 24.8233L54.8433 24.6667L58.79 20.94C59.4967 21.7967 59.8833 22.8733 59.8833 23.99C59.88 25.29 59.36 26.54 58.4367 27.46C58.2522 27.6378 58.0567 27.7989 57.85 27.9433ZM22.3267 55.7933L22.79 56.2267L25.2067 58.6433L19.8267 58.2933L22.3267 55.7933ZM54.9667 19.1C56.05 19.1067 57.1033 19.4667 57.9667 20.1267L53.6333 24.4867C53.569 24.5384 53.5195 24.6063 53.49 24.6833L53.4867 24.7L53.48 24.72C53.4557 24.8034 53.457 24.8921 53.4838 24.9747C53.5105 25.0573 53.5615 25.13 53.63 25.1833L56.91 28.46C56.0129 28.85 55.0192 28.9607 54.0583 28.7776C53.0974 28.5944 52.214 28.126 51.5233 27.4333C50.8454 26.749 50.3843 25.8799 50.1975 24.9349C50.0108 23.9899 50.1067 23.0108 50.4733 22.12C50.8391 21.2282 51.4613 20.4652 52.2613 19.9275C53.0612 19.3899 54.0028 19.1019 54.9667 19.1ZM51.9367 29.9867C51.9306 30.1986 51.8807 30.4069 51.79 30.5985C51.6994 30.7902 51.57 30.9609 51.41 31.1L38.4267 42.3967L38.3833 42.4333L37.91 41.96L37.7033 41.7533L37.6033 41.6533L37.3133 41.3633L37.2033 41.2533L36.98 41.03L49.27 28.85C49.5206 28.5942 49.8527 28.4342 50.2089 28.3977C50.565 28.3612 50.9227 28.4504 51.22 28.65C51.3084 28.7087 51.391 28.7756 51.4667 28.85L51.59 28.9767C51.6967 29.1367 51.7889 29.3033 51.8667 29.4767C51.9178 29.6433 51.9411 29.8133 51.9367 29.9867ZM36.9433 42.4533L36.9667 42.5167L37.08 42.6267L37.5667 43.1033L37.3867 43.1267L34.69 43.4567L35.0233 43.1233L36.3267 41.8233L36.9433 42.4533ZM50.0433 27.4567C49.4875 27.5299 48.9717 27.7855 48.5767 28.1833L36.3267 40.3767L33.9267 37.9767C40.2767 31.65 44.16 28.35 46.5767 27.2667C47.1029 26.935 47.7192 26.7752 48.3403 26.8092C48.9614 26.8433 49.5565 27.0695 50.0433 27.4567ZM33.2167 38.6833L33.2667 38.7333L35.25 40.7167L30.0767 41.8233L33.2167 38.6833ZM26.44 54.8767C26.278 54.9526 26.1477 55.0828 26.0716 55.2448C25.9955 55.4067 25.9784 55.5901 26.0233 55.7633L26.5767 58.18C26.5975 58.2085 26.6088 58.243 26.6088 58.2783C26.6088 58.3137 26.5975 58.3481 26.5767 58.3767C26.5463 58.4034 26.5072 58.4181 26.4667 58.4181C26.4262 58.4181 26.3871 58.4034 26.3567 58.3767L23.0767 55.07L33.1767 44.82L38.4067 44.01L40.3267 45.93C36.0766 49.4628 31.4136 52.467 26.44 54.8767ZM41.2433 45.21L39.2167 43.1833L51.98 31.99C51.0733 35.59 46.26 40.47 41.2433 45.21ZM58.8267 23.3767C58.7743 23.2886 58.6913 23.2228 58.5935 23.1921C58.4957 23.1614 58.39 23.1677 58.2967 23.21C58.2511 23.2336 58.2106 23.2659 58.1775 23.3052C58.1445 23.3444 58.1195 23.3898 58.104 23.4387C58.0885 23.4877 58.0829 23.5392 58.0873 23.5903C58.0918 23.6414 58.1063 23.6912 58.13 23.7367C58.2257 23.9377 58.2637 24.1614 58.2395 24.3827C58.2154 24.6041 58.1301 24.8143 57.9933 24.99C57.9579 25.0236 57.9302 25.0647 57.9123 25.1102C57.8945 25.1557 57.8869 25.2045 57.89 25.2533C57.89 25.3556 57.9233 25.4433 57.99 25.5167C58.0622 25.5423 58.1411 25.5423 58.2133 25.5167C58.2782 25.5332 58.3463 25.5317 58.4103 25.5123C58.4744 25.493 58.5319 25.4564 58.5767 25.4067C58.8076 25.1274 58.9538 24.7879 58.9981 24.4282C59.0424 24.0685 58.9829 23.7036 58.8267 23.3767Z" fill="#9F9F9F"/>
</svg>
